<svg width="4294" height="1897" xmlns="http://www.w3.org/2000/svg" xmlns:xlink="http://www.w3.org/1999/xlink" xml:space="preserve" overflow="hidden"><defs><clipPath id="clip0"><rect x="-14" y="222" width="4294" height="1897"/></clipPath><clipPath id="clip1"><rect x="97" y="1059" width="331" height="331"/></clipPath><clipPath id="clip2"><rect x="97" y="1059" width="331" height="331"/></clipPath><clipPath id="clip3"><rect x="97" y="1059" width="331" height="331"/></clipPath><clipPath id="clip4"><rect x="1651" y="499" width="192" height="190"/></clipPath><clipPath id="clip5"><rect x="1651" y="499" width="192" height="190"/></clipPath><clipPath id="clip6"><rect x="1651" y="499" width="192" height="190"/></clipPath><clipPath id="clip7"><rect x="1648" y="1291" width="193" height="191"/></clipPath><clipPath id="clip8"><rect x="1648" y="1291" width="193" height="191"/></clipPath><clipPath id="clip9"><rect x="1648" y="1291" width="193" height="191"/></clipPath><clipPath id="clip10"><rect x="1889" y="1291" width="193" height="191"/></clipPath><clipPath id="clip11"><rect x="1889" y="1291" width="193" height="191"/></clipPath><clipPath id="clip12"><rect x="1889" y="1291" width="193" height="191"/></clipPath><clipPath id="clip13"><rect x="1647" y="913" width="193" height="192"/></clipPath><clipPath id="clip14"><rect x="1647" y="913" width="193" height="192"/></clipPath><clipPath id="clip15"><rect x="1647" y="913" width="193" height="192"/></clipPath><clipPath id="clip16"><rect x="1879" y="913" width="192" height="192"/></clipPath><clipPath id="clip17"><rect x="1879" y="913" width="192" height="192"/></clipPath><clipPath id="clip18"><rect x="1879" y="913" width="192" height="192"/></clipPath><clipPath id="clip19"><rect x="2120" y="913" width="193" height="192"/></clipPath><clipPath id="clip20"><rect x="2120" y="913" width="193" height="192"/></clipPath><clipPath id="clip21"><rect x="2120" y="913" width="193" height="192"/></clipPath><clipPath id="clip22"><rect x="1653" y="1670" width="191" height="193"/></clipPath><clipPath id="clip23"><rect x="1653" y="1670" width="191" height="193"/></clipPath><clipPath id="clip24"><rect x="1653" y="1670" width="191" height="193"/></clipPath><clipPath id="clip25"><rect x="3422" y="867" width="191" height="193"/></clipPath><clipPath id="clip26"><rect x="3422" y="867" width="191" height="193"/></clipPath><clipPath id="clip27"><rect x="3422" y="867" width="191" height="193"/></clipPath><clipPath id="clip28"><rect x="3837" y="1287" width="331" height="330"/></clipPath><clipPath id="clip29"><rect x="3837" y="1287" width="331" height="330"/></clipPath><clipPath id="clip30"><rect x="3837" y="1287" width="331" height="330"/></clipPath><clipPath id="clip31"><rect x="3224" y="222" width="397" height="369"/></clipPath><clipPath id="clip32"><rect x="3224" y="222" width="397" height="369"/></clipPath><clipPath id="clip33"><rect x="3224" y="222" width="397" height="369"/></clipPath><linearGradient x1="35.1883" y1="69.6771" x2="167.369" y2="298.608" gradientUnits="userSpaceOnUse" spreadMethod="pad" id="fill34"><stop offset="0" stop-color="#5A62C3"/><stop offset="0.5" stop-color="#4D55BD"/><stop offset="1" stop-color="#3940AB"/></linearGradient></defs><g clip-path="url(#clip0)" transform="translate(14 -222)"><path d="M695 659.172C695 499.466 824.466 370 984.171 370L3430.83 370C3590.53 370 3720 499.466 3720 659.172L3720 1815.83C3720 1975.53 3590.53 2105 3430.83 2105L984.171 2105C824.466 2105 695 1975.53 695 1815.83Z" stroke="#8FAADC" stroke-width="27.5" stroke-miterlimit="8" stroke-dasharray="220 82.5" fill="none" fill-rule="evenodd"/><path d="M2594.5 1024C2594.5 955.793 2767.99 900.5 2982 900.5 3196.01 900.5 3369.5 955.793 3369.5 1024 3369.5 1092.21 3196.01 1147.5 2982 1147.5 2767.99 1147.5 2594.5 1092.21 2594.5 1024Z" stroke="#000000" stroke-width="4.58333" stroke-miterlimit="8" fill="#FFFFFF" fill-rule="evenodd"/><text font-family="Times New Roman,Times New Roman_MSFontService,sans-serif" font-weight="400" font-size="83" transform="matrix(1 0 0 1 2742.88 1004)">Update/Delete <tspan font-size="83" x="38.9583" y="99">a to</tspan><tspan font-size="83" x="160.417" y="99">-</tspan>do item</text><path d="M842.5 1047C842.5 978.793 1015.99 923.5 1230 923.5 1444.01 923.5 1617.5 978.793 1617.5 1047 1617.5 1115.21 1444.01 1170.5 1230 1170.5 1015.99 1170.5 842.5 1115.21 842.5 1047Z" stroke="#000000" stroke-width="4.58333" stroke-miterlimit="8" fill="#FFFFFF" fill-rule="evenodd"/><text font-family="Times New Roman,Times New Roman_MSFontService,sans-serif" font-weight="400" font-size="83" transform="matrix(1 0 0 1 1032.74 1028)">Add a to-do <tspan font-size="83" x="123.75" y="99">item</tspan></text><path d="M842.5 654.5C842.5 586.569 1015.99 531.5 1230 531.5 1444.01 531.5 1617.5 586.569 1617.5 654.5 1617.5 722.431 1444.01 777.5 1230 777.5 1015.99 777.5 842.5 722.431 842.5 654.5Z" stroke="#000000" stroke-width="4.58333" stroke-miterlimit="8" fill="#FFFFFF" fill-rule="evenodd"/><text font-family="Times New Roman,Times New Roman_MSFontService,sans-serif" font-weight="400" font-size="83" transform="matrix(1 0 0 1 1082.18 635)">View the <tspan font-size="83" x="-0.733398" y="99">TodoList</tspan></text><path d="M842.5 1833C842.5 1764.79 1015.99 1709.5 1230 1709.5 1444.01 1709.5 1617.5 1764.79 1617.5 1833 1617.5 1901.21 1444.01 1956.5 1230 1956.5 1015.99 1956.5 842.5 1901.21 842.5 1833Z" stroke="#000000" stroke-width="4.58333" stroke-miterlimit="8" fill="#FFFFFF" fill-rule="evenodd"/><text font-family="Times New Roman,Times New Roman_MSFontService,sans-serif" font-weight="400" font-size="83" transform="matrix(1 0 0 1 1077.43 1813)">Get daily <tspan font-size="83" x="-53.8542" y="99">notifications</tspan></text><g clip-path="url(#clip1)"><g clip-path="url(#clip2)"><g clip-path="url(#clip3)"><path d="M263 1114C289.579 1114 311.125 1135.55 311.125 1162.13 311.125 1188.7 289.579 1210.25 263 1210.25 236.421 1210.25 214.875 1188.7 214.875 1162.13 214.901 1135.56 236.432 1114.03 263 1114M263 1107.13C232.624 1107.13 208 1131.75 208 1162.13 208 1192.5 232.624 1217.13 263 1217.13 293.376 1217.13 318 1192.5 318 1162.13 318 1131.75 293.376 1107.13 263 1107.13Z"/><path d="M373 1340.88 366.125 1340.88 366.125 1287.59C365.961 1280.29 362.521 1273.45 356.758 1268.97 341.682 1257.4 324.421 1249 306.013 1244.28 292.077 1239.99 277.582 1237.79 263 1237.75 248.423 1238 233.945 1240.2 219.949 1244.28 201.734 1249.62 184.549 1257.98 169.115 1269.03 163.409 1273.52 160.018 1280.33 159.875 1287.59L159.875 1340.88 153 1340.88 153 1287.59C153.17 1278.2 157.559 1269.39 164.949 1263.6 181.076 1252.02 199.045 1243.25 218.096 1237.67 232.695 1233.42 247.796 1231.13 263 1230.88 278.235 1230.91 293.381 1233.21 307.945 1237.68 327.228 1242.65 345.304 1251.47 361.082 1263.62 368.457 1269.41 372.834 1278.22 373 1287.59Z"/></g></g></g><g clip-path="url(#clip4)"><g clip-path="url(#clip5)"><g clip-path="url(#clip6)"><path d="M94.9999 39.5833C98.8256 39.5833 101.927 36.4819 101.927 32.6562 101.927 28.8305 98.8256 25.7291 94.9999 25.7291L94.802 25.7291C91.0364 25.7964 88.0308 28.8903 88.0728 32.6562 88.0793 36.4792 91.1769 39.5767 94.9999 39.5833ZM94.8692 29.6875 94.9999 29.6875C96.6394 29.6875 97.9686 31.0167 97.9684 32.6564 97.9684 34.2959 96.6392 35.625 94.9997 35.625 93.3599 35.625 92.0309 34.2957 92.0309 32.656 92.0309 32.6469 92.0311 32.6376 92.0311 32.6285 92.0058 31.0339 93.2746 29.7189 94.8692 29.6875Z" transform="matrix(1.00527 0 0 1 1651 499)"/><path d="M154.375 37.5626C154.375 33.1904 150.83 29.6459 146.458 29.6459L116.771 29.6459 116.771 25.6876C116.763 20.2255 112.337 15.7994 106.875 15.7917L83.1249 15.7917C77.6622 15.7983 73.2356 20.2249 73.2291 25.6876L73.2291 29.6459 43.5416 29.6459C39.1716 29.6514 35.6305 33.1926 35.625 37.5626L35.625 166.25C35.625 170.622 39.1694 174.166 43.5416 174.166L146.458 174.166C150.83 174.166 154.375 170.622 154.375 166.25ZM69.2707 33.6042 77.1874 33.6042 77.1874 25.6876C77.1874 22.4083 79.8456 19.7501 83.1249 19.7501L106.875 19.7501C110.154 19.7501 112.812 22.4083 112.812 25.6876L112.812 33.6042 120.729 33.6042 120.729 49.4791 69.2707 49.4791ZM146.458 170.208 43.5416 170.208C41.3554 170.208 39.5833 168.436 39.5833 166.25L39.5833 37.5626C39.5833 35.3764 41.3554 33.6042 43.5416 33.6042L65.3124 33.6042 65.3124 53.4374 124.687 53.4374 124.687 33.6042 146.458 33.6042C148.644 33.6042 150.416 35.3764 150.416 37.5626L150.416 166.25C150.416 168.436 148.644 170.208 146.458 170.208Z" transform="matrix(1.00527 0 0 1 1651 499)"/></g></g></g><text font-family="Comic Sans MS,Comic Sans MS_MSFontService,sans-serif" font-weight="400" font-size="64" transform="matrix(1 0 0 1 1689.67 776)">Tab<tspan font-size="83" x="-1519.39" y="739">User</tspan></text><path d="M2.78031-2.02146 403.636 549.313 398.075 553.356-2.78031 2.02146ZM409.282 539.541 414.332 569.87 387.039 555.713Z" fill="#595959" transform="matrix(1 0 0 -1 428.5 1224.37)"/><path d="M430.087 1221.45 824.092 1426.55 820.917 1432.65 426.913 1227.55ZM824.788 1415.28 842.832 1440.18 812.091 1439.68Z" fill="#595959"/><path d="M1.35103-3.16087 394.61 164.928 391.908 171.25-1.35103 3.16087ZM394.449 153.644 414.332 177.096 383.641 178.931Z" fill="#595959" transform="matrix(1 0 0 -1 428.5 1224.6)"/><path d="M431.341 1222.57 832.776 1812.08 827.093 1815.95 425.659 1226.43ZM838.719 1802.48 842.832 1832.95 815.989 1817.96Z" fill="#595959"/><path d="M842.5 1440C842.5 1371.79 1015.99 1316.5 1230 1316.5 1444.01 1316.5 1617.5 1371.79 1617.5 1440 1617.5 1508.21 1444.01 1563.5 1230 1563.5 1015.99 1563.5 842.5 1508.21 842.5 1440Z" stroke="#000000" stroke-width="4.58333" stroke-miterlimit="8" fill="#FFFFFF" fill-rule="evenodd"/><text font-family="Times New Roman,Times New Roman_MSFontService,sans-serif" font-weight="400" font-size="83" transform="matrix(1 0 0 1 1052.22 1421)">Share with <tspan font-size="83" x="76.7709" y="99">others</tspan></text><g clip-path="url(#clip7)"><g clip-path="url(#clip8)"><g clip-path="url(#clip9)"><path d="M167.14 29.8515 23.8831 29.8515C19.4923 29.8648 15.9365 33.4216 15.9242 37.8122L15.9242 133.339C15.9367 137.729 19.4925 141.286 23.8831 141.299L81.5804 141.299 81.5804 161.201 59.697 161.201 59.697 165.18 131.326 165.18 131.326 161.201 109.435 161.201 109.435 141.299 167.14 141.299C171.53 141.286 175.086 137.729 175.098 133.339L175.098 37.8122C175.086 33.4216 171.531 29.8648 167.14 29.8515ZM105.455 161.201 85.5595 161.201 85.5595 141.299 105.455 141.299ZM171.119 133.339C171.117 135.536 169.337 137.317 167.14 137.32L23.8831 137.32C21.6858 137.317 19.9056 135.536 19.9034 133.339L19.9034 37.8122C19.9054 35.6149 21.6856 33.8336 23.8831 33.8306L167.14 33.8306C169.337 33.8336 171.117 35.6149 171.119 37.8122Z" fill="#231F20" transform="matrix(1 0 0 1 1649 1291)"/><path d="M29.8521 39.8028 25.8729 39.8028 25.8729 131.348 165.15 131.348 165.15 39.8028 29.8521 39.8028ZM81.5824 43.7819 81.5824 83.5604 72.1396 83.5604 72.1396 77.2186C72.1703 75.4563 71.3392 73.7896 69.9131 72.7538 67.6408 70.9859 65.0135 69.7292 62.2112 69.0699 60.1212 68.447 57.9581 68.1014 55.7781 68.0421 53.6069 68.0415 51.4494 68.3851 49.3858 69.0601 46.5739 69.8265 43.9254 71.0987 41.5693 72.8139 40.2164 73.8761 39.4241 75.4988 39.4184 77.2186L39.4184 83.5604 29.8521 83.5604 29.8521 43.7819ZM68.1605 83.5604 43.3975 83.5604 43.3975 77.2186C43.3836 76.7371 43.5983 76.2774 43.9765 75.9791 45.9462 74.5605 48.1558 73.5094 50.4989 72.8762 52.2032 72.3169 53.9845 72.0284 55.7781 72.0212 57.6175 72.0855 59.4407 72.3871 61.2027 72.9189 63.4714 73.437 65.5995 74.4449 67.4376 75.8723L67.6086 75.9986C67.977 76.2937 68.1819 76.7471 68.1605 77.2186ZM29.8521 87.5396 81.5824 87.5396 81.5824 127.369 72.1396 127.369 72.1396 120.989C72.1703 119.227 71.3392 117.56 69.9131 116.525 67.6408 114.757 65.0135 113.5 62.2112 112.841 60.1212 112.218 57.9581 111.872 55.7781 111.813 53.6069 111.812 51.4494 112.156 49.3858 112.831 46.5739 113.597 43.9254 114.869 41.5693 116.585 40.2164 117.647 39.4241 119.27 39.4184 120.989L39.4184 127.369 29.8521 127.369ZM68.1605 127.369 43.3975 127.369 43.3975 120.989C43.3836 120.508 43.5983 120.048 43.9765 119.75 45.9462 118.331 48.1558 117.28 50.4989 116.647 52.2032 116.088 53.9845 115.799 55.7781 115.792 57.6175 115.856 59.4407 116.158 61.2027 116.69 63.4714 117.208 65.5995 118.216 67.4376 119.643L67.6086 119.769C67.977 120.064 68.1819 120.518 68.1605 120.989ZM161.171 127.369 85.5615 127.369 85.5615 43.7819 161.171 43.7819Z" fill="#231F20" transform="matrix(1 0 0 1 1649 1291)"/><path d="M148.074 111.415 148.074 99.3935C148.122 96.9682 146.976 94.6736 145.008 93.2556 141.533 90.5462 137.511 88.6237 133.22 87.6211 130.015 86.6644 126.698 86.1313 123.354 86.0356 120.015 86.0368 116.698 86.5687 113.526 87.6114 109.245 88.7763 105.21 90.71 101.62 93.3179 99.7472 94.7797 98.6462 97.0179 98.6317 99.3935L98.6317 111.415ZM102.611 99.3935C102.607 98.2565 103.13 97.1817 104.027 96.4829 107.231 94.173 110.826 92.4604 114.638 91.4274 117.451 90.5035 120.393 90.0267 123.354 90.0148 126.358 90.1163 129.337 90.6055 132.216 91.4702 135.973 92.3321 139.495 94.0059 142.537 96.3741L142.707 96.5024C143.622 97.1749 144.143 98.2588 144.095 99.3935L144.095 107.435 102.611 107.435Z" fill="#231F20" transform="matrix(1 0 0 1 1649 1291)"/><path d="M123.353 83.7659C130.003 83.7675 135.395 78.3782 135.397 71.7284 135.398 65.0786 130.009 59.6866 123.359 59.685 116.709 59.6834 111.317 65.0728 111.316 71.7226 111.316 71.7236 111.316 71.7244 111.316 71.7254 111.315 78.3744 116.704 83.7651 123.353 83.7659ZM123.353 63.6642C127.805 63.6626 131.416 67.2703 131.417 71.7226 131.419 76.1747 127.811 79.7852 123.359 79.7868 118.907 79.7884 115.296 76.1805 115.295 71.7284 115.295 71.7274 115.295 71.7264 115.295 71.7254 115.299 67.2763 118.904 63.67 123.353 63.6642Z" fill="#231F20" transform="matrix(1 0 0 1 1649 1291)"/><path d="M55.7785 109.883C60.3002 109.884 63.9666 106.219 63.9676 101.697 63.9684 97.1751 60.3036 93.5087 55.7819 93.5079 51.2602 93.5069 47.5938 97.1717 47.593 101.693 47.593 101.694 47.593 101.695 47.593 101.695 47.5924 106.217 51.257 109.882 55.7779 109.883 55.7781 109.883 55.7783 109.883 55.7785 109.883ZM55.7785 97.4871C58.1027 97.4861 59.9875 99.3694 59.9885 101.693 59.9892 104.018 58.1061 105.902 55.7819 105.903 53.4579 105.904 51.5729 104.021 51.5721 101.697 51.5721 101.696 51.5721 101.696 51.5721 101.695 51.5741 99.3728 53.4559 97.4903 55.7785 97.4871Z" fill="#231F20" transform="matrix(1 0 0 1 1649 1291)"/><path d="M55.7785 66.1124C60.3004 66.1134 63.967 62.4486 63.968 57.9267 63.9692 53.4047 60.3044 49.7381 55.7825 49.7371 51.2606 49.7359 47.594 53.4008 47.593 57.9227 47.593 57.9235 47.593 57.9241 47.593 57.9247 47.5924 62.446 51.257 66.1118 55.7783 66.1124 55.7785 66.1124 55.7785 66.1124 55.7785 66.1124ZM55.7785 53.7163C58.1027 53.7151 59.9879 55.5984 59.9889 57.9227 59.99 60.2471 58.1067 62.132 55.7825 62.1332 53.4583 62.1342 51.5731 60.2509 51.5721 57.9267 51.5721 57.9261 51.5721 57.9253 51.5721 57.9247 51.5741 55.602 53.4559 53.7195 55.7785 53.7163Z" fill="#231F20" transform="matrix(1 0 0 1 1649 1291)"/></g></g></g><text font-family="Comic Sans MS,Comic Sans MS_MSFontService,sans-serif" font-weight="400" font-size="64" transform="matrix(1 0 0 1 1622.98 1569)">Meeting</text><g clip-path="url(#clip10)"><g clip-path="url(#clip11)"><g clip-path="url(#clip12)"><path d="M167.125 61.6949 115.396 61.6949 115.396 47.7679C115.383 43.378 111.827 39.8227 107.437 39.8095L23.875 39.8095C19.4852 39.8227 15.9298 43.378 15.9166 47.7679L15.9166 101.502C15.9298 105.892 19.4852 109.448 23.875 109.461L35.8125 109.461 35.8125 129.357 55.7083 109.461 75.6041 109.461 75.6041 123.388C75.6172 127.778 79.1726 131.333 83.5624 131.346L135.292 131.346 155.187 151.242 155.187 131.346 167.125 131.346C171.515 131.333 175.07 127.778 175.083 123.388L175.083 69.6552C175.071 65.2646 171.515 61.708 167.125 61.6949ZM75.6041 69.6532 75.6041 105.484 54.0649 105.484 52.899 106.649 39.7916 119.757 39.7916 105.484 23.875 105.484C21.6773 105.484 19.8958 103.702 19.8958 101.504L19.8958 47.7698C19.8958 45.5721 21.6773 43.7907 23.875 43.7907L107.437 43.7907C109.635 43.7907 111.417 45.5721 111.417 47.7698L111.417 61.6969 83.5624 61.6969C79.1726 61.71 75.6172 65.2654 75.6041 69.6552ZM171.104 123.388C171.104 125.586 169.322 127.367 167.125 127.367L151.208 127.367 151.208 141.64 138.113 128.527 136.947 127.361 83.5624 127.361C81.3647 127.361 79.5832 125.58 79.5832 123.382L79.5832 69.6552C79.5832 67.4575 81.3647 65.6761 83.5624 65.6761L167.125 65.6761C169.322 65.6761 171.104 67.4575 171.104 69.6552Z" transform="matrix(1 0 0 1 1890 1291)"/></g></g></g><text font-family="Comic Sans MS,Comic Sans MS_MSFontService,sans-serif" font-weight="400" font-size="64" transform="matrix(1 0 0 1 1916.42 1569)">Chat</text><g clip-path="url(#clip13)"><g clip-path="url(#clip14)"><g clip-path="url(#clip15)"><path d="M1743.5 952.792C1747.35 952.792 1750.46 949.674 1750.46 945.828 1750.46 941.982 1747.35 938.865 1743.5 938.865L1743.3 938.865C1739.52 938.932 1736.49 942.042 1736.54 945.828 1736.54 949.671 1739.66 952.785 1743.5 952.792ZM1743.37 942.844 1743.5 942.844C1745.15 942.844 1746.48 944.18 1746.48 945.828 1746.48 947.477 1745.15 948.812 1743.5 948.812 1741.85 948.812 1740.52 947.476 1740.52 945.828 1740.52 945.819 1740.52 945.809 1740.52 945.8 1740.49 944.197 1741.77 942.875 1743.37 942.844Z"/><path d="M1803.19 950.76C1803.19 946.365 1799.62 942.802 1795.23 942.802L1765.39 942.802 1765.39 938.823C1765.38 933.332 1760.93 928.883 1755.44 928.875L1731.56 928.875C1726.07 928.881 1721.62 933.331 1721.61 938.823L1721.61 942.802 1691.77 942.802C1687.38 942.808 1683.82 946.367 1683.81 950.76L1683.81 1080.13C1683.81 1084.52 1687.38 1088.08 1691.77 1088.08L1795.23 1088.08C1799.62 1088.08 1803.19 1084.52 1803.19 1080.13ZM1717.64 946.781 1725.59 946.781 1725.59 938.823C1725.59 935.526 1728.27 932.854 1731.56 932.854L1755.44 932.854C1758.73 932.854 1761.41 935.526 1761.41 938.823L1761.41 946.781 1769.36 946.781 1769.36 962.74 1717.64 962.74ZM1795.23 1084.1 1691.77 1084.1C1689.57 1084.1 1687.79 1082.32 1687.79 1080.13L1687.79 950.76C1687.79 948.563 1689.57 946.781 1691.77 946.781L1713.66 946.781 1713.66 966.719 1773.34 966.719 1773.34 946.781 1795.23 946.781C1797.43 946.781 1799.21 948.563 1799.21 950.76L1799.21 1080.13C1799.21 1082.32 1797.43 1084.1 1795.23 1084.1Z"/></g></g></g><text font-family="Comic Sans MS,Comic Sans MS_MSFontService,sans-serif" font-weight="400" font-size="64" transform="matrix(1 0 0 1 1686.78 1190)">Tab</text><g clip-path="url(#clip16)"><g clip-path="url(#clip17)"><g clip-path="url(#clip18)"><path d="M166.265 29.6952 23.7581 29.6952C19.3903 29.7085 15.8531 33.2467 15.8409 37.6143L15.8409 132.641C15.8533 137.008 19.3904 140.546 23.7581 140.56L81.1534 140.56 81.1534 160.357 59.3845 160.357 59.3845 164.315 130.639 164.315 130.639 160.357 108.862 160.357 108.862 140.56 166.265 140.56C170.633 140.546 174.17 137.008 174.182 132.641L174.182 37.6143C174.17 33.2467 170.633 29.7085 166.265 29.6952ZM104.903 160.357 85.1117 160.357 85.1117 140.56 104.903 140.56ZM170.224 132.641C170.222 134.827 168.451 136.598 166.265 136.601L23.7581 136.601C21.5723 136.598 19.8014 134.827 19.7992 132.641L19.7992 37.6143C19.8012 35.4285 21.5721 33.6565 23.7581 33.6536L166.265 33.6536C168.451 33.6565 170.222 35.4285 170.224 37.6143Z" fill="#231F20" transform="matrix(1 0 0 1.00526 1880 913)"/><path d="M29.6958 39.5944 25.7375 39.5944 25.7375 130.66 164.286 130.66 164.286 39.5944 29.6958 39.5944ZM81.1554 43.5528 81.1554 83.1231 71.762 83.1231 71.762 76.8145C71.7925 75.0613 70.9658 73.4034 69.5472 72.373 67.2868 70.6143 64.6733 69.3643 61.8856 68.7084 59.8065 68.0887 57.6547 67.7449 55.4862 67.686 53.3263 67.6854 51.1801 68.0272 49.1273 68.6987 46.3301 69.4611 43.6955 70.7265 41.3517 72.4328 40.0059 73.4895 39.2178 75.1037 39.2121 76.8145L39.2121 83.1231 29.6958 83.1231 29.6958 43.5528ZM67.8037 83.1231 43.1704 83.1231 43.1704 76.8145C43.1565 76.3355 43.3701 75.8781 43.7463 75.5814 45.7057 74.1703 47.9038 73.1247 50.2346 72.4947 51.93 71.9384 53.7019 71.6514 55.4862 71.6443 57.3159 71.7082 59.1296 72.0083 60.8824 72.5373 63.1392 73.0527 65.2561 74.0553 67.0847 75.4752L67.2547 75.6008C67.6212 75.8943 67.8251 76.3454 67.8037 76.8145ZM29.6958 87.0814 81.1554 87.0814 81.1554 126.702 71.762 126.702 71.762 120.356C71.7925 118.603 70.9658 116.945 69.5472 115.915 67.2868 114.156 64.6733 112.906 61.8856 112.25 59.8065 111.63 57.6547 111.287 55.4862 111.228 53.3263 111.227 51.1801 111.569 49.1273 112.24 46.3301 113.003 43.6955 114.268 41.3517 115.974 40.0059 117.031 39.2178 118.645 39.2121 120.356L39.2121 126.702 29.6958 126.702ZM67.8037 126.702 43.1704 126.702 43.1704 120.356C43.1565 119.877 43.3701 119.42 43.7463 119.123 45.7057 117.712 47.9038 116.666 50.2346 116.036 51.93 115.48 53.7019 115.193 55.4862 115.186 57.3159 115.25 59.1296 115.55 60.8824 116.079 63.1392 116.594 65.2561 117.597 67.0847 119.017L67.2547 119.143C67.6212 119.436 67.8251 119.887 67.8037 120.356ZM160.327 126.702 85.1137 126.702 85.1137 43.5528 160.327 43.5528Z" fill="#231F20" transform="matrix(1 0 0 1.00526 1880 913)"/><path d="M147.299 110.831 147.299 98.8733C147.347 96.4607 146.207 94.1781 144.249 92.7676 140.792 90.0723 136.791 88.1598 132.523 87.1625 129.334 86.2108 126.035 85.6805 122.708 85.5853 119.387 85.5865 116.087 86.1156 112.932 87.1528 108.673 88.3117 104.66 90.2352 101.088 92.8295 99.2252 94.2836 98.1299 96.5102 98.1155 98.8733L98.1155 110.831ZM102.074 98.8733C102.07 97.7422 102.591 96.673 103.483 95.978 106.67 93.6801 110.246 91.9765 114.038 90.9489 116.837 90.0298 119.762 89.5556 122.708 89.5437 125.697 89.6446 128.66 90.1313 131.524 90.9914 135.261 91.8488 138.765 93.5139 141.791 95.8697L141.961 95.9974C142.871 96.6663 143.388 97.7446 143.341 98.8733L143.341 106.873 102.074 106.873Z" fill="#231F20" transform="matrix(1 0 0 1.00526 1880 913)"/><path d="M122.707 83.3275C129.322 83.3291 134.686 77.9679 134.688 71.353 134.689 64.738 129.328 59.3742 122.713 59.3727 116.098 59.3711 110.735 64.7322 110.733 71.3472 110.733 71.3482 110.733 71.349 110.733 71.35 110.732 77.9642 116.093 83.3267 122.707 83.3275ZM122.707 63.331C127.136 63.3294 130.728 66.9182 130.73 71.3472 130.731 75.776 127.142 79.3676 122.713 79.3692 118.285 79.3708 114.693 75.7817 114.691 71.353 114.691 71.352 114.691 71.351 114.691 71.35 114.696 66.9242 118.282 63.3367 122.707 63.331Z" fill="#231F20" transform="matrix(1 0 0 1.00526 1880 913)"/><path d="M55.4866 109.307C59.9846 109.308 63.6318 105.663 63.6328 101.165 63.6336 96.6665 59.988 93.0193 55.4899 93.0185 50.9919 93.0175 47.3447 96.6631 47.3439 101.161 47.3439 101.162 47.3439 101.163 47.3439 101.163 47.3433 105.661 50.9887 109.307 55.486 109.307 55.4862 109.307 55.4864 109.307 55.4866 109.307ZM55.4866 96.9768C57.7986 96.9759 59.6735 98.8493 59.6745 101.161 59.6753 103.473 57.802 105.348 55.4899 105.349 53.1781 105.35 51.303 103.477 51.3022 101.165 51.3022 101.164 51.3022 101.164 51.3022 101.163 51.3042 98.8527 53.1761 96.98 55.4866 96.9768Z" fill="#231F20" transform="matrix(1 0 0 1.00526 1880 913)"/><path d="M55.4866 65.7664C59.9848 65.7673 63.6322 62.1217 63.6332 57.6235 63.6344 53.1252 59.9888 49.4778 55.4905 49.4768 50.9923 49.4756 47.3449 53.1213 47.3439 57.6195 47.3439 57.6203 47.3439 57.6209 47.3439 57.6215 47.3433 62.1191 50.9887 65.7658 55.4864 65.7664 55.4866 65.7664 55.4866 65.7664 55.4866 65.7664ZM55.4866 53.4352C57.7986 53.434 59.6739 55.3074 59.6749 57.6195 59.6761 59.9318 57.8026 61.8068 55.4905 61.808 53.1785 61.809 51.3032 59.9355 51.3022 57.6235 51.3022 57.6229 51.3022 57.6221 51.3022 57.6215 51.3042 55.311 53.1761 53.4383 55.4866 53.4352Z" fill="#231F20" transform="matrix(1 0 0 1.00526 1880 913)"/></g></g></g><text font-family="Comic Sans MS,Comic Sans MS_MSFontService,sans-serif" font-weight="400" font-size="64" transform="matrix(1 0 0 1 1853.74 1190)">Meeting</text><g clip-path="url(#clip19)"><g clip-path="url(#clip20)"><g clip-path="url(#clip21)"><path d="M2288.12 974.695 2236.4 974.695 2236.4 960.768C2236.38 956.378 2232.83 952.823 2228.44 952.81L2144.88 952.81C2140.49 952.823 2136.93 956.378 2136.92 960.768L2136.92 1014.5C2136.93 1018.89 2140.49 1022.45 2144.88 1022.46L2156.81 1022.46 2156.81 1042.36 2176.71 1022.46 2196.6 1022.46 2196.6 1036.39C2196.62 1040.78 2200.17 1044.33 2204.56 1044.35L2256.29 1044.35 2276.19 1064.24 2276.19 1044.35 2288.12 1044.35C2292.51 1044.33 2296.07 1040.78 2296.08 1036.39L2296.08 982.655C2296.07 978.265 2292.52 974.708 2288.12 974.695ZM2196.6 982.653 2196.6 1018.48 2175.06 1018.48 2173.9 1019.65 2160.79 1032.76 2160.79 1018.48 2144.88 1018.48C2142.68 1018.48 2140.9 1016.7 2140.9 1014.5L2140.9 960.77C2140.9 958.572 2142.68 956.791 2144.88 956.791L2228.44 956.791C2230.64 956.791 2232.42 958.572 2232.42 960.77L2232.42 974.697 2204.56 974.697C2200.17 974.71 2196.62 978.266 2196.6 982.655ZM2292.1 1036.39C2292.1 1038.59 2290.32 1040.37 2288.12 1040.37L2272.21 1040.37 2272.21 1054.64 2259.11 1041.53 2257.95 1040.36 2204.56 1040.36C2202.36 1040.36 2200.58 1038.58 2200.58 1036.38L2200.58 982.655C2200.58 980.458 2202.36 978.676 2204.56 978.676L2288.12 978.676C2290.32 978.676 2292.1 980.458 2292.1 982.655Z"/></g></g></g><text font-family="Comic Sans MS,Comic Sans MS_MSFontService,sans-serif" font-weight="400" font-size="64" transform="matrix(1 0 0 1 2147.18 1190)">Chat</text><g clip-path="url(#clip22)"><g clip-path="url(#clip23)"><g clip-path="url(#clip24)"><path d="M145.227 118.579 145.227 100.45C145.223 96.6184 142.117 93.5137 138.286 93.5103L129.311 93.5103 129.311 83.5624 106.761 83.5624 106.761 77.5937 112.62 77.5937C118.539 77.5881 123.337 72.791 123.342 66.8718L123.342 44.5447C123.337 38.6255 118.539 33.8284 112.62 33.8229L97.4775 33.8229 97.4775 27.5716C101.733 26.4728 104.292 22.1321 103.194 17.8764 102.095 13.6207 97.7541 11.0616 93.4984 12.1604 89.2427 13.2592 86.6835 17.5999 87.7823 21.8555 88.5061 24.6589 90.695 26.8478 93.4984 27.5716L93.4984 33.8229 78.3537 33.8229C72.4353 33.8294 67.6394 38.6263 67.6338 44.5447L67.6338 66.8718C67.6394 72.7902 72.4353 77.5871 78.3537 77.5937L84.8755 77.5937 84.8755 83.5624 61.6651 83.5624 61.6651 95.486 49.0392 95.486C47.4053 95.485 46.0809 94.1613 46.0787 92.5275L46.0787 74.3964C52.0208 73.2942 55.9444 67.5837 54.8422 61.6416 54.4791 59.6844 53.5892 57.8636 52.2683 56.3748L49.2958 59.0209C51.8493 61.8969 51.5878 66.298 48.7119 68.8514 45.8362 71.4049 41.4348 71.1434 38.8814 68.2677 36.5538 65.646 36.5381 61.7029 38.8446 59.0627L35.8483 56.4424C31.8749 60.9962 32.3452 67.9086 36.899 71.882 38.376 73.1708 40.172 74.0393 42.0995 74.3964L42.0995 92.5275C42.1039 96.358 45.2087 99.4617 49.0392 99.4651L61.6651 99.4651 61.6651 141.31C52.3471 141.864 45.2429 149.868 45.7974 159.186 46.3284 168.111 53.7189 175.078 62.6599 175.083L128.316 175.083C137.651 175.078 145.214 167.507 145.208 158.172 145.204 149.232 138.236 141.841 129.311 141.31L129.311 97.4895 138.286 97.4895C139.92 97.4917 141.245 98.8155 141.248 100.45L141.248 118.579C135.306 119.681 131.383 125.392 132.485 131.334 132.848 133.29 133.737 135.11 135.057 136.599L138.029 133.953C135.476 131.076 135.739 126.675 138.615 124.122 141.491 121.569 145.893 121.831 148.445 124.708 150.773 127.33 150.788 131.273 148.48 133.913L151.477 136.531C155.449 131.977 154.978 125.064 150.423 121.092 148.948 119.804 147.153 118.937 145.227 118.579ZM91.5088 19.8958C91.5088 17.6982 93.2903 15.9166 95.4879 15.9166 97.6856 15.9166 99.4671 17.6982 99.4671 19.8958 99.4671 22.0935 97.6856 23.875 95.4879 23.875 93.2903 23.8762 91.508 22.0955 91.5068 19.8978 91.5068 19.8972 91.5068 19.8964 91.5068 19.8958ZM65.6442 117.525 81.9091 117.525 88.3911 103.747 94.4812 127.081 102.7 110.169 107.873 122.445 111.884 118.344C112.415 117.857 113.099 117.57 113.818 117.531L125.326 117.531 125.326 141.26 65.6383 141.26ZM78.3537 73.6145C74.6324 73.6089 71.6174 70.5931 71.613 66.8718L71.613 44.5447C71.6174 40.8234 74.6324 37.8076 78.3537 37.802L112.62 37.802C116.342 37.8076 119.357 40.823 119.363 44.5447L119.363 66.8718C119.357 70.5935 116.342 73.6089 112.62 73.6145L78.3537 73.6145ZM88.8547 77.5937 102.782 77.5937 102.782 83.5624 88.8547 83.5624ZM84.8755 87.5416 125.332 87.5416 125.332 113.545 113.824 113.545C112.118 113.58 110.483 114.234 109.222 115.384L102.955 100.53 95.6113 115.65 89.4675 92.1176 79.3843 113.545 65.6442 113.545 65.6442 87.5416ZM141.248 158.172C141.24 165.31 135.455 171.095 128.316 171.104L62.6599 171.104C55.5175 171.104 49.7276 165.314 49.7276 158.172 49.7276 151.029 55.5175 145.239 62.6599 145.239L128.316 145.239C135.455 145.248 141.24 151.033 141.248 158.172Z" transform="matrix(1 0 0 1 1653 1671)"/><path d="M113.989 55.7083C113.989 50.9834 110.159 47.1531 105.434 47.1531 100.709 47.1531 96.8787 50.9834 96.8787 55.7083 96.8787 60.4331 100.709 64.2635 105.434 64.2635 110.159 64.2635 113.989 60.4331 113.989 55.7083ZM105.434 61.677C102.137 61.677 99.4651 59.0048 99.4651 55.7083 99.4651 52.4117 102.137 49.7395 105.434 49.7395 108.73 49.7395 111.403 52.4117 111.403 55.7083 111.403 59.0048 108.73 61.677 105.434 61.677Z" transform="matrix(1 0 0 1 1653 1671)"/><path d="M108.418 55.7083C108.418 57.3565 107.082 58.6926 105.434 58.6926 103.786 58.6926 102.449 57.3565 102.449 55.7083 102.449 54.06 103.786 52.7239 105.434 52.7239 107.082 52.7239 108.418 54.06 108.418 55.7083Z" transform="matrix(1 0 0 1 1653 1671)"/><path d="M85.5381 47.1531C80.8132 47.1531 76.9829 50.9834 76.9829 55.7083 76.9829 60.4331 80.8132 64.2635 85.5381 64.2635 90.2629 64.2635 94.0933 60.4331 94.0933 55.7083 94.0933 50.9834 90.2629 47.1531 85.5381 47.1531ZM85.5381 61.677C82.2415 61.677 79.5693 59.0048 79.5693 55.7083 79.5693 52.4117 82.2415 49.7395 85.5381 49.7395 88.8346 49.7395 91.5068 52.4117 91.5068 55.7083 91.5068 59.0048 88.8346 61.677 85.5381 61.677Z" transform="matrix(1 0 0 1 1653 1671)"/><path d="M88.5224 55.7083C88.5224 57.3565 87.1863 58.6926 85.5381 58.6926 83.8898 58.6926 82.5537 57.3565 82.5537 55.7083 82.5537 54.06 83.8898 52.7239 85.5381 52.7239 87.1863 52.7239 88.5224 54.06 88.5224 55.7083Z" transform="matrix(1 0 0 1 1653 1671)"/><path d="M99.4671 158.172C99.4671 160.369 97.6856 162.151 95.4879 162.151 93.2903 162.151 91.5088 160.369 91.5088 158.172 91.5088 155.974 93.2903 154.193 95.4879 154.193 97.6856 154.193 99.4671 155.974 99.4671 158.172Z" transform="matrix(1 0 0 1 1653 1671)"/><path d="M70.6182 158.172C70.6182 160.369 68.8367 162.151 66.639 162.151 64.4414 162.151 62.6599 160.369 62.6599 158.172 62.6599 155.974 64.4414 154.193 66.639 154.193 68.8367 154.193 70.6182 155.974 70.6182 158.172Z" transform="matrix(1 0 0 1 1653 1671)"/><path d="M128.316 158.172C128.316 160.369 126.535 162.151 124.337 162.151 122.139 162.151 120.358 160.369 120.358 158.172 120.358 155.974 122.139 154.193 124.337 154.193 126.535 154.193 128.316 155.974 128.316 158.172Z" transform="matrix(1 0 0 1 1653 1671)"/></g></g></g><text font-family="Comic Sans MS,Comic Sans MS_MSFontService,sans-serif" font-weight="400" font-size="64" transform="matrix(1 0 0 1 1691.73 1948)">Bot</text><g clip-path="url(#clip25)"><g clip-path="url(#clip26)"><g clip-path="url(#clip27)"><path d="M95 39.5834C98.8258 39.5834 101.927 36.482 101.927 32.6563 101.927 28.8305 98.8258 25.7292 95 25.7292L94.8021 25.7292C91.0366 25.7965 88.031 28.8903 88.073 32.6563 88.0795 36.4792 91.1771 39.5768 95 39.5834ZM94.8694 29.6875 95 29.6875C96.6396 29.6875 97.9688 31.0167 97.9686 32.6565 97.9686 34.296 96.6394 35.625 94.9999 35.625 93.3601 35.625 92.0311 34.2958 92.0311 32.6561 92.0311 32.647 92.0313 32.6377 92.0313 32.6286 92.006 31.0339 93.2748 29.719 94.8694 29.6875Z" transform="matrix(1 0 0 1.00526 3422 868)"/><path d="M154.375 37.5626C154.375 33.1904 150.831 29.646 146.458 29.646L116.771 29.646 116.771 25.6876C116.763 20.2255 112.337 15.7994 106.875 15.7918L83.125 15.7918C77.6623 15.7983 73.2357 20.2249 73.2292 25.6876L73.2292 29.646 43.5417 29.646C39.1717 29.6515 35.6306 33.1926 35.625 37.5626L35.625 166.25C35.625 170.622 39.1695 174.167 43.5417 174.167L146.458 174.167C150.831 174.167 154.375 170.622 154.375 166.25ZM69.2709 33.6043 77.1875 33.6043 77.1875 25.6876C77.1875 22.4083 79.8458 19.7501 83.125 19.7501L106.875 19.7501C110.154 19.7501 112.813 22.4083 112.813 25.6876L112.813 33.6043 120.729 33.6043 120.729 49.4792 69.2709 49.4792ZM146.458 170.208 43.5417 170.208C41.3555 170.208 39.5834 168.436 39.5834 166.25L39.5834 37.5626C39.5834 35.3764 41.3555 33.6043 43.5417 33.6043L65.3125 33.6043 65.3125 53.4375 124.688 53.4375 124.688 33.6043 146.458 33.6043C148.645 33.6043 150.417 35.3764 150.417 37.5626L150.417 166.25C150.417 168.436 148.645 170.208 146.458 170.208Z" transform="matrix(1 0 0 1.00526 3422 868)"/></g></g></g><text font-family="Comic Sans MS,Comic Sans MS_MSFontService,sans-serif" font-weight="400" font-size="64" transform="matrix(1 0 0 1 3460.02 1145)">Tab</text><path d="M0.000466131-3.4375 6.87547-3.43657 6.87453 3.43843-0.000466131 3.4375ZM13.7505-3.43564 20.6255-3.4347 20.6245 3.4403 13.7495 3.43936ZM27.5005-3.43377 34.3755-3.43284 34.3745 3.44216 27.4995 3.44123ZM41.2505-3.43191 48.1255-3.43097 48.1245 3.44403 41.2495 3.44309ZM55.0005-3.43004 61.8755-3.42911 61.8745 3.44589 54.9995 3.44496ZM68.7505-3.42818 75.6255-3.42725 75.6245 3.44775 68.7495 3.44682ZM82.5005-3.42631 89.3755-3.42538 89.3745 3.44962 82.4995 3.44869ZM96.2505-3.42445 103.125-3.42352 103.125 3.45148 96.2495 3.45055ZM110-3.42258 116.875-3.42165 116.875 3.45335 110 3.45242ZM123.75-3.42072 130.625-3.41979 130.625 3.45521 123.75 3.45428ZM137.5-3.41885 144.375-3.41792 144.375 3.45708 137.5 3.45615ZM151.25-3.41699 158.125-3.41606 158.125 3.45894 151.25 3.45801ZM165-3.41513 171.875-3.41419 171.875 3.46081 165 3.45987ZM178.75-3.41326 185.625-3.41233 185.625 3.46267 178.75 3.46174ZM192.5-3.4114 199.375-3.41046 199.375 3.46454 192.5 3.4636ZM206.25-3.40953 213.125-3.4086 213.125 3.4664 206.25 3.46547ZM220-3.40767 226.875-3.40674 226.875 3.46826 220 3.46733ZM233.75-3.4058 240.625-3.40487 240.625 3.47013 233.75 3.4692ZM247.5-3.40394 248.548-3.4038 248.547 3.4712 247.5 3.47106ZM243.966-13.7169 271.464 0.036811 243.962 13.7831Z" fill="#595959" transform="matrix(1 0 0 -1 2322.5 1023.54)"/><text font-family="Times New Roman,Times New Roman_MSFontService,sans-serif" font-weight="400" font-size="64" transform="matrix(1 0 0 1 2372.44 985)">extend</text><g clip-path="url(#clip28)"><g clip-path="url(#clip29)"><g clip-path="url(#clip30)"><path d="M4003 1342C4029.58 1342 4051.12 1363.55 4051.12 1390.12 4051.12 1416.7 4029.58 1438.25 4003 1438.25 3976.42 1438.25 3954.88 1416.7 3954.88 1390.12 3954.9 1363.56 3976.43 1342.03 4003 1342M4003 1335.12C3972.62 1335.12 3948 1359.75 3948 1390.12 3948 1420.5 3972.62 1445.12 4003 1445.12 4033.38 1445.12 4058 1420.5 4058 1390.12 4058 1359.75 4033.38 1335.12 4003 1335.12Z"/><path d="M4113 1568.88 4106.12 1568.88 4106.12 1515.59C4105.96 1508.29 4102.52 1501.45 4096.76 1496.97 4081.68 1485.4 4064.42 1477 4046.01 1472.28 4032.08 1467.99 4017.58 1465.79 4003 1465.75 3988.42 1466 3973.94 1468.2 3959.95 1472.28 3941.73 1477.62 3924.55 1485.98 3909.11 1497.03 3903.41 1501.52 3900.02 1508.33 3899.88 1515.59L3899.88 1568.88 3893 1568.88 3893 1515.59C3893.17 1506.2 3897.56 1497.39 3904.95 1491.6 3921.08 1480.02 3939.04 1471.25 3958.1 1465.67 3972.69 1461.42 3987.8 1459.13 4003 1458.88 4018.24 1458.91 4033.38 1461.2 4047.95 1465.68 4067.23 1470.65 4085.3 1479.47 4101.08 1491.62 4108.46 1497.41 4112.83 1506.22 4113 1515.59Z"/></g></g></g><text font-family="Comic Sans MS,Comic Sans MS_MSFontService,sans-serif" font-weight="400" font-size="83" transform="matrix(1 0 0 1 3871.44 1734)">Viewer</text><path d="M3838.77 1456.68 2155.42 1455.95 2155.42 1449.07 3838.77 1449.8ZM2159.99 1466.26 2132.5 1452.5 2160.01 1438.76Z" fill="#595959"/><g clip-path="url(#clip31)"><g clip-path="url(#clip32)"><g clip-path="url(#clip33)"><path d="M276.151 138.107 378.414 138.107C388.075 138.107 395.907 145.939 395.907 155.601 395.907 155.601 395.907 155.601 395.907 155.601L395.907 248.749C395.907 284.258 367.122 313.042 331.614 313.042L331.614 313.042 331.31 313.042C295.802 313.048 267.011 284.266 267.008 248.758 267.008 248.756 267.008 248.753 267.008 248.749L267.008 147.25C267.008 142.201 271.1 138.107 276.151 138.107L276.151 138.107Z" fill="#5059C9" transform="matrix(1 0 0 1.00194 3224.05 222)"/><path d="M386.7 78.2607C386.7 101.143 368.15 119.693 345.268 119.693 322.386 119.693 303.836 101.143 303.836 78.2607 303.836 55.3784 322.386 36.8285 345.268 36.8285 368.15 36.8285 386.7 55.3784 386.7 78.2607Z" fill="#5059C9" transform="matrix(1 0 0 1.00194 3224.05 222)"/><path d="M276.214 59.8465C276.214 92.8988 249.42 119.693 216.367 119.693 183.315 119.693 156.521 92.8988 156.521 59.8465 156.521 26.7942 183.315-1.38773e-06 216.367-1.38773e-06 249.42-1.38773e-06 276.214 26.7942 276.214 59.8465Z" fill="#7B83EB" transform="matrix(1 0 0 1.00194 3224.05 222)"/><path d="M296.166 138.107 127.362 138.107C117.816 138.343 110.264 146.266 110.486 155.813L110.486 262.054C109.153 319.343 154.477 366.884 211.765 368.285 269.052 366.884 314.376 319.343 313.042 262.054L313.042 155.813C313.264 146.266 305.713 138.343 296.166 138.107Z" fill="#7B83EB" transform="matrix(1 0 0 1.00194 3224.05 222)"/><path d="M220.972 138.107 220.972 286.988C220.925 293.814 216.788 299.948 210.475 302.546 208.465 303.397 206.305 303.836 204.123 303.836L118.588 303.836C117.391 300.798 116.286 297.759 115.365 294.629 112.143 284.064 110.498 273.081 110.486 262.036L110.486 155.785C110.264 146.254 117.804 138.343 127.335 138.107L220.972 138.107Z" fill="#000000" fill-opacity="0.1" transform="matrix(1 0 0 1.00194 3224.05 222)"/><path d="M211.765 138.107 211.765 296.194C211.765 298.377 211.326 300.537 210.475 302.546 207.877 308.859 201.743 312.998 194.915 313.042L122.915 313.042C121.35 310.005 119.877 306.966 118.588 303.836 117.299 300.706 116.286 297.759 115.365 294.629 112.143 284.064 110.498 273.081 110.486 262.036L110.486 155.785C110.264 146.254 117.804 138.343 127.335 138.107L211.765 138.107Z" fill="#000000" fill-opacity="0.2" transform="matrix(1 0 0 1.00194 3224.05 222)"/><path d="M211.765 138.107 211.765 277.779C211.694 287.057 204.193 294.558 194.915 294.629L115.366 294.629C112.143 284.064 110.498 273.081 110.486 262.036L110.486 155.785C110.264 146.254 117.804 138.343 127.335 138.107L211.765 138.107Z" fill="#000000" fill-opacity="0.2" transform="matrix(1 0 0 1.00194 3224.05 222)"/><path d="M202.557 138.107 202.557 277.779C202.487 287.057 194.984 294.558 185.708 294.629L115.366 294.629C112.143 284.064 110.498 273.081 110.486 262.036L110.486 155.785C110.264 146.254 117.804 138.343 127.335 138.107L202.557 138.107Z" fill="#000000" fill-opacity="0.2" transform="matrix(1 0 0 1.00194 3224.05 222)"/><path d="M220.972 90.5063 220.972 119.509C219.407 119.601 217.934 119.693 216.367 119.693 214.802 119.693 213.33 119.601 211.765 119.509 208.656 119.303 205.575 118.81 202.557 118.036 183.913 113.62 168.509 100.545 161.125 82.8645 159.854 79.8954 158.868 76.8125 158.179 73.6574L204.122 73.6574C213.413 73.6926 220.936 81.2154 220.972 90.5063Z" fill="#000000" fill-opacity="0.1" transform="matrix(1 0 0 1.00194 3224.05 222)"/><path d="M211.765 99.7134 211.765 119.509C208.656 119.303 205.575 118.81 202.557 118.036 183.913 113.62 168.509 100.545 161.125 82.8645L194.915 82.8645C204.207 82.8997 211.729 90.4227 211.765 99.7134Z" fill="#000000" fill-opacity="0.2" transform="matrix(1 0 0 1.00194 3224.05 222)"/><path d="M211.765 99.7134 211.765 119.509C208.656 119.303 205.575 118.81 202.557 118.036 183.913 113.62 168.509 100.545 161.125 82.8645L194.915 82.8645C204.207 82.8997 211.729 90.4227 211.765 99.7134Z" fill="#000000" fill-opacity="0.2" transform="matrix(1 0 0 1.00194 3224.05 222)"/><path d="M202.557 99.7134 202.557 118.036C183.913 113.62 168.509 100.545 161.125 82.8643L185.708 82.8643C194.999 82.8997 202.521 90.4227 202.557 99.7134Z" fill="#000000" fill-opacity="0.2" transform="matrix(1 0 0 1.00194 3224.05 222)"/><path d="M16.8766 82.8643 185.68 82.8643C195.002 82.8643 202.557 90.4204 202.557 99.741L202.557 268.544C202.557 277.866 195 285.421 185.68 285.421L16.8766 285.421C7.55584 285.421 0 277.865 0 268.544L0 99.741C0 90.4204 7.55602 82.8643 16.8766 82.8643Z" fill="url(#fill34)" transform="matrix(1 0 0 1.00194 3224.05 222)"/><path d="M145.694 147.112 111.95 147.112 111.95 238.999 90.4511 238.999 90.4511 147.112 56.8634 147.112 56.8634 129.287 145.694 129.287 145.694 147.112Z" fill="#FFFFFF" transform="matrix(1 0 0 1.00194 3224.05 222)"/></g></g></g></g></svg>