<svg width="96" height="96" xmlns="http://www.w3.org/2000/svg" xmlns:xlink="http://www.w3.org/1999/xlink" xml:space="preserve" overflow="hidden"><defs><clipPath id="clip0"><rect x="640" y="339" width="96" height="96"/></clipPath></defs><g clip-path="url(#clip0)" transform="translate(-640 -339)"><path d="M718 359 701 359 701 354C701 350.1 697.9 347 694 347L682 347C678.1 347 675 350.1 675 354L675 359 658 359C655.8 359 654 360.8 654 363L654 367 722 367 722 363C722 360.8 720.2 359 718 359ZM681 354C681 353.4 681.4 353 682 353L694 353C694.6 353 695 353.4 695 354L695 359 681 359 681 354Z" fill="#AFABAB"/><path d="M660 423C660 425.2 661.8 427 664 427L712 427C714.2 427 716 425.2 716 423L716 371 660 371 660 423ZM701 377 707 377 707 421 701 421 701 377ZM685 377 691 377 691 421 685 421 685 377ZM669 377 675 377 675 421 669 421 669 377Z" fill="#AFABAB"/></g></svg>