<svg width="96" height="96" xmlns="http://www.w3.org/2000/svg" xmlns:xlink="http://www.w3.org/1999/xlink" xml:space="preserve" overflow="hidden"><defs><clipPath id="clip0"><rect x="362" y="312" width="96" height="96"/></clipPath></defs><g clip-path="url(#clip0)" transform="translate(-362 -312)"><path d="M385 360.5C385 365.194 381.194 369 376.5 369 371.806 369 368 365.194 368 360.5 368 355.806 371.806 352 376.5 352 381.194 352 385 355.806 385 360.5Z" fill="#AFABAB"/><path d="M418 360.5C418 365.194 414.194 369 409.5 369 404.806 369 401 365.194 401 360.5 401 355.806 404.806 352 409.5 352 414.194 352 418 355.806 418 360.5Z" fill="#AFABAB"/><path d="M451 360.5C451 365.194 447.194 369 442.5 369 437.806 369 434 365.194 434 360.5 434 355.806 437.806 352 442.5 352 447.194 352 451 355.806 451 360.5Z" fill="#AFABAB"/></g></svg>