<svg width="1753" height="1696" xmlns="http://www.w3.org/2000/svg" xmlns:xlink="http://www.w3.org/1999/xlink" xml:space="preserve" overflow="hidden"><defs><clipPath id="clip0"><rect x="573" y="396" width="1753" height="1696"/></clipPath><clipPath id="clip1"><rect x="1622" y="1100" width="331" height="330"/></clipPath><clipPath id="clip2"><rect x="1622" y="1100" width="331" height="330"/></clipPath><clipPath id="clip3"><rect x="1622" y="1100" width="331" height="330"/></clipPath><clipPath id="clip4"><rect x="1622" y="1762" width="331" height="331"/></clipPath><clipPath id="clip5"><rect x="1622" y="1762" width="331" height="331"/></clipPath><clipPath id="clip6"><rect x="1622" y="1762" width="331" height="331"/></clipPath><clipPath id="clip7"><rect x="1622" y="1448" width="331" height="331"/></clipPath><clipPath id="clip8"><rect x="1622" y="1448" width="331" height="331"/></clipPath><clipPath id="clip9"><rect x="1622" y="1448" width="331" height="331"/></clipPath></defs><g clip-path="url(#clip0)" transform="translate(-573 -396)"><rect x="983.5" y="398.5" width="935" height="453" stroke="#000000" stroke-width="4.58333" stroke-miterlimit="8" fill="#FFFFFF"/><text font-family="Times New Roman,Times New Roman_MSFontService,sans-serif" font-weight="400" font-size="83" transform="matrix(1 0 0 1 1287.65 507)">Front<tspan font-size="83" x="178.75" y="0">-</tspan><tspan font-size="83" x="206.25" y="0">end</tspan></text><rect x="1065" y="625" width="772" height="169" fill="#DAE3F3"/><text font-family="DengXian,DengXian_MSFontService,sans-serif" font-weight="400" font-size="83" transform="matrix(1 0 0 1 1198.72 737)">Adaptive Card</text><rect x="575.5" y="1164.5" width="935" height="875" stroke="#000000" stroke-width="4.58333" stroke-miterlimit="8" fill="#FFFFFF"/><text font-family="Times New Roman,Times New Roman_MSFontService,sans-serif" font-weight="400" font-size="83" transform="matrix(1 0 0 1 884.596 1286)">Back<tspan font-size="83" x="169.583" y="0">-</tspan><tspan font-size="83" x="197.083" y="0">end</tspan></text><rect x="642" y="1355" width="808" height="169" fill="#DAE3F3"/><text font-family="DengXian,DengXian_MSFontService,sans-serif" font-weight="400" font-size="83" transform="matrix(1 0 0 1 739.313 1467)">Show user profile</text><rect x="642" y="1578" width="808" height="184" fill="#DAE3F3"/><text font-family="DengXian,DengXian_MSFontService,sans-serif" font-weight="400" font-size="83" transform="matrix(1 0 0 1 678.87 1698)">Manage to<tspan font-size="83" x="385.573" y="0">-</tspan>do items</text><rect x="642" y="1814" width="808" height="170" fill="#DAE3F3"/><text font-family="DengXian,DengXian_MSFontService,sans-serif" font-weight="400" font-size="83" transform="matrix(1 0 0 1 731.292 1926)">Send notifications</text><g clip-path="url(#clip1)"><g clip-path="url(#clip2)"><g clip-path="url(#clip3)"><path d="M1887.69 1371.56 1887.69 1165.31C1887.69 1145.22 1836.33 1134.38 1788 1134.38 1739.67 1134.38 1688.31 1145.22 1688.31 1165.31L1688.31 1371.56C1688.31 1391.66 1739.67 1402.5 1788 1402.5 1836.33 1402.5 1887.69 1391.66 1887.69 1371.56ZM1788 1141.25C1841.12 1141.25 1880.81 1153.97 1880.81 1165.31 1880.81 1176.66 1841.12 1189.38 1788 1189.38 1734.88 1189.38 1695.19 1176.66 1695.19 1165.31 1695.19 1153.97 1734.88 1141.25 1788 1141.25ZM1695.19 1177.21C1710.76 1189.65 1750.3 1196.25 1788 1196.25 1825.7 1196.25 1865.24 1189.65 1880.81 1177.21L1880.81 1234.06C1880.81 1245.41 1841.12 1258.12 1788 1258.12 1734.88 1258.12 1695.19 1245.41 1695.19 1234.06ZM1695.19 1245.96C1710.76 1258.4 1750.3 1265 1788 1265 1825.7 1265 1865.24 1258.4 1880.81 1245.96L1880.81 1302.81C1880.81 1314.16 1841.12 1326.88 1788 1326.88 1734.88 1326.88 1695.19 1314.16 1695.19 1302.81ZM1695.19 1371.56 1695.19 1314.71C1710.76 1327.15 1750.3 1333.75 1788 1333.75 1825.7 1333.75 1865.24 1327.15 1880.81 1314.71L1880.81 1371.56C1880.81 1382.91 1841.12 1395.62 1788 1395.62 1734.88 1395.62 1695.19 1382.91 1695.19 1371.56Z"/><path d="M1863.62 1223.75C1863.62 1227.55 1860.55 1230.62 1856.75 1230.62 1852.95 1230.62 1849.87 1227.55 1849.87 1223.75 1849.87 1219.95 1852.95 1216.88 1856.75 1216.88 1860.55 1216.88 1863.62 1219.95 1863.62 1223.75Z"/><path d="M1863.62 1292.5C1863.62 1296.3 1860.55 1299.38 1856.75 1299.38 1852.95 1299.38 1849.87 1296.3 1849.87 1292.5 1849.87 1288.7 1852.95 1285.62 1856.75 1285.62 1860.55 1285.62 1863.62 1288.7 1863.62 1292.5Z"/><path d="M1863.62 1361.25C1863.62 1365.05 1860.55 1368.12 1856.75 1368.12 1852.95 1368.12 1849.87 1365.05 1849.87 1361.25 1849.87 1357.45 1852.95 1354.38 1856.75 1354.38 1860.55 1354.38 1863.62 1357.45 1863.62 1361.25Z"/></g></g></g><text font-family="Comic Sans MS,Comic Sans MS_MSFontService,sans-serif" font-weight="400" font-size="64" transform="matrix(1 0 0 1 1967.31 1287)">Database</text><g clip-path="url(#clip4)"><g clip-path="url(#clip5)"><g clip-path="url(#clip6)"><path d="M1843 1865.13C1843 1895.5 1818.38 1920.13 1788 1920.13 1757.62 1920.13 1733 1895.5 1733 1865.13 1733 1834.75 1757.62 1810.13 1788 1810.13 1818.38 1810.13 1843 1834.75 1843 1865.13Z"/><path d="M1898 2043.88 1898 1988.88C1898 1980.63 1893.87 1972.38 1887 1966.88 1871.87 1954.5 1852.62 1946.25 1833.37 1940.75 1819.62 1936.63 1804.5 1933.88 1788 1933.88 1772.87 1933.88 1757.75 1936.63 1742.62 1940.75 1723.37 1946.25 1704.12 1955.88 1689 1966.88 1682.12 1972.38 1678 1980.63 1678 1988.88L1678 2043.88 1898 2043.88Z"/></g></g></g><g clip-path="url(#clip7)"><g clip-path="url(#clip8)"><g clip-path="url(#clip9)"><path d="M1889.41 1614C1903.71 1614.07 1915.37 1602.53 1915.44 1588.22 1915.51 1573.91 1903.97 1562.25 1889.66 1562.18 1875.35 1562.11 1863.7 1573.66 1863.62 1587.96 1863.61 1590.2 1863.89 1592.43 1864.45 1594.59L1818.91 1612.81C1813.71 1602.06 1803.32 1594.77 1791.44 1593.55L1791.44 1544.99C1805.55 1543.09 1815.45 1530.11 1813.55 1516 1811.65 1501.89 1798.67 1491.99 1784.56 1493.89 1770.45 1495.79 1760.55 1508.77 1762.45 1522.88 1764 1534.39 1773.05 1543.44 1784.56 1544.99L1784.56 1593.55C1772.69 1594.77 1762.29 1602.05 1757.09 1612.8L1711.55 1594.58C1715.07 1580.79 1706.74 1566.75 1692.94 1563.22 1679.15 1559.7 1665.11 1568.03 1661.59 1581.83 1658.06 1595.62 1666.39 1609.66 1680.19 1613.18 1691.44 1616.06 1703.23 1611.05 1708.97 1600.96L1754.72 1619.26C1751.86 1630.24 1754.67 1641.93 1762.22 1650.4L1725.28 1687.33C1713.54 1679.21 1697.44 1682.16 1689.33 1693.9 1681.22 1705.64 1684.16 1721.74 1695.91 1729.85 1707.65 1737.96 1723.75 1735.02 1731.86 1723.28 1738.48 1713.69 1737.87 1700.87 1730.37 1691.96L1767.24 1655.08C1779.49 1664.47 1796.51 1664.47 1808.76 1655.08L1845.63 1691.96C1836.45 1702.87 1837.86 1719.16 1848.77 1728.34 1859.69 1737.52 1875.98 1736.11 1885.16 1725.2 1894.34 1714.28 1892.93 1697.99 1882.01 1688.81 1873.11 1681.32 1860.29 1680.71 1850.72 1687.33L1813.78 1650.4C1821.32 1641.93 1824.13 1630.24 1821.26 1619.27L1867.02 1600.97C1871.6 1609.02 1880.14 1613.99 1889.41 1614ZM1686.59 1607.12C1676.15 1607.12 1667.69 1598.66 1667.69 1588.22 1667.69 1577.78 1676.15 1569.31 1686.59 1569.31 1697.04 1569.31 1705.5 1577.78 1705.5 1588.22 1705.49 1598.66 1697.03 1607.11 1686.59 1607.12ZM1769.09 1519.47C1769.09 1509.03 1777.56 1500.56 1788 1500.56 1798.44 1500.56 1806.91 1509.03 1806.91 1519.47 1806.91 1529.91 1798.44 1538.37 1788 1538.37 1777.56 1538.36 1769.1 1529.91 1769.09 1519.47ZM1710.66 1727.44C1700.21 1727.44 1691.75 1718.97 1691.75 1708.53 1691.75 1698.09 1700.21 1689.62 1710.66 1689.62 1721.1 1689.62 1729.56 1698.09 1729.56 1708.53 1729.55 1718.97 1721.09 1727.43 1710.66 1727.44ZM1884.25 1708.53C1884.25 1718.97 1875.79 1727.44 1865.34 1727.44 1854.9 1727.44 1846.44 1718.97 1846.44 1708.53 1846.44 1698.09 1854.9 1689.62 1865.34 1689.62 1875.78 1689.64 1884.24 1698.09 1884.25 1708.53ZM1788 1655.25C1772.81 1655.25 1760.5 1642.94 1760.5 1627.75 1760.5 1612.56 1772.81 1600.25 1788 1600.25 1803.19 1600.25 1815.5 1612.56 1815.5 1627.75 1815.48 1642.93 1803.18 1655.23 1788 1655.25ZM1889.41 1569.31C1899.85 1569.31 1908.31 1577.78 1908.31 1588.22 1908.31 1598.66 1899.85 1607.12 1889.41 1607.12 1878.96 1607.12 1870.5 1598.66 1870.5 1588.22 1870.51 1577.78 1878.97 1569.32 1889.41 1569.31Z"/></g></g></g><text font-family="Comic Sans MS,Comic Sans MS_MSFontService,sans-serif" font-weight="400" font-size="64" transform="matrix(1 0 0 1 1987.71 1628)">MS Graph<tspan font-size="64" x="79.3488" y="330">SSO</tspan></text></g></svg>